<svg width="168" height="32" viewBox="0 0 168 32" fill="none" xmlns="http://www.w3.org/2000/svg">
<rect x="24" y="15" width="48" height="2" fill="#9E77ED"/>
<rect x="96" y="15" width="48" height="2" fill="#333741"/>
<g clip-path="url(#clip0_2180_76684)">
<path d="M0 16C0 9.37258 5.37258 4 12 4V4C18.6274 4 24 9.37258 24 16V16C24 22.6274 18.6274 28 12 28V28C5.37258 28 0 22.6274 0 16V16Z" fill="#9E77ED"/>
<path d="M0 16C0 9.37258 5.37258 4 12 4V4C18.6274 4 24 9.37258 24 16V16C24 22.6274 18.6274 28 12 28V28C5.37258 28 0 22.6274 0 16V16Z" fill="#7F56D9"/>
<path fill-rule="evenodd" clip-rule="evenodd" d="M17.098 11.39L9.93797 18.3L8.03797 16.27C7.68797 15.94 7.13797 15.92 6.73797 16.2C6.34797 16.49 6.23797 17 6.47797 17.41L8.72797 21.07C8.94797 21.41 9.32797 21.62 9.75797 21.62C10.168 21.62 10.558 21.41 10.778 21.07C11.138 20.6 18.008 12.41 18.008 12.41C18.908 11.49 17.818 10.68 17.098 11.38V11.39Z" fill="white"/>
</g>
<g filter="url(#filter0_dd_2180_76684)">
<g clip-path="url(#clip1_2180_76684)">
<path d="M72 16C72 9.37258 77.3726 4 84 4V4C90.6274 4 96 9.37258 96 16V16C96 22.6274 90.6274 28 84 28V28C77.3726 28 72 22.6274 72 16V16Z" fill="#9E77ED"/>
<path d="M72 16C72 9.37258 77.3726 4 84 4V4C90.6274 4 96 9.37258 96 16V16C96 22.6274 90.6274 28 84 28V28C77.3726 28 72 22.6274 72 16V16Z" fill="#7F56D9"/>
<circle cx="84" cy="16" r="4" fill="white"/>
</g>
</g>
<g clip-path="url(#clip2_2180_76684)">
<path d="M144 16C144 9.37258 149.373 4 156 4V4C162.627 4 168 9.37258 168 16V16C168 22.6274 162.627 28 156 28V28C149.373 28 144 22.6274 144 16V16Z" fill="#161B26"/>
<path d="M156 4.75C162.213 4.75 167.25 9.7868 167.25 16C167.25 22.2132 162.213 27.25 156 27.25C149.787 27.25 144.75 22.2132 144.75 16C144.75 9.7868 149.787 4.75 156 4.75Z" stroke="#1F242F" stroke-width="1.5"/>
<circle cx="156" cy="16" r="4" fill="#61646C"/>
</g>
<defs>
<filter id="filter0_dd_2180_76684" x="68" y="0" width="32" height="32" filterUnits="userSpaceOnUse" color-interpolation-filters="sRGB">
<feFlood flood-opacity="0" result="BackgroundImageFix"/>
<feColorMatrix in="SourceAlpha" type="matrix" values="0 0 0 0 0 0 0 0 0 0 0 0 0 0 0 0 0 0 127 0" result="hardAlpha"/>
<feMorphology radius="4" operator="dilate" in="SourceAlpha" result="effect1_dropShadow_2180_76684"/>
<feOffset/>
<feComposite in2="hardAlpha" operator="out"/>
<feColorMatrix type="matrix" values="0 0 0 0 0.619152 0 0 0 0 0.465529 0 0 0 0 0.930549 0 0 0 1 0"/>
<feBlend mode="normal" in2="BackgroundImageFix" result="effect1_dropShadow_2180_76684"/>
<feColorMatrix in="SourceAlpha" type="matrix" values="0 0 0 0 0 0 0 0 0 0 0 0 0 0 0 0 0 0 127 0" result="hardAlpha"/>
<feMorphology radius="2" operator="dilate" in="SourceAlpha" result="effect2_dropShadow_2180_76684"/>
<feOffset/>
<feComposite in2="hardAlpha" operator="out"/>
<feColorMatrix type="matrix" values="0 0 0 0 0.0470588 0 0 0 0 0.0666667 0 0 0 0 0.113725 0 0 0 1 0"/>
<feBlend mode="normal" in2="effect1_dropShadow_2180_76684" result="effect2_dropShadow_2180_76684"/>
<feBlend mode="normal" in="SourceGraphic" in2="effect2_dropShadow_2180_76684" result="shape"/>
</filter>
<clipPath id="clip0_2180_76684">
<path d="M0 16C0 9.37258 5.37258 4 12 4V4C18.6274 4 24 9.37258 24 16V16C24 22.6274 18.6274 28 12 28V28C5.37258 28 0 22.6274 0 16V16Z" fill="white"/>
</clipPath>
<clipPath id="clip1_2180_76684">
<path d="M72 16C72 9.37258 77.3726 4 84 4V4C90.6274 4 96 9.37258 96 16V16C96 22.6274 90.6274 28 84 28V28C77.3726 28 72 22.6274 72 16V16Z" fill="white"/>
</clipPath>
<clipPath id="clip2_2180_76684">
<path d="M144 16C144 9.37258 149.373 4 156 4V4C162.627 4 168 9.37258 168 16V16C168 22.6274 162.627 28 156 28V28C149.373 28 144 22.6274 144 16V16Z" fill="white"/>
</clipPath>
</defs>
</svg>
