<svg width="14" height="14" viewBox="0 0 14 14" fill="none" xmlns="http://www.w3.org/2000/svg">
<path d="M6.99969 5.25013V7.58347M6.99969 9.9168H7.00553M6.19196 2.27031L1.39411 10.5575C1.12799 11.0172 0.994934 11.247 1.0146 11.4356C1.03175 11.6002 1.11795 11.7497 1.25174 11.8469C1.40514 11.9585 1.67071 11.9585 2.20185 11.9585H11.7975C12.3287 11.9585 12.5943 11.9585 12.7476 11.8469C12.8814 11.7497 12.9676 11.6002 12.9848 11.4356C13.0045 11.247 12.8714 11.0172 12.6053 10.5575L7.80743 2.2703C7.54226 1.81229 7.40968 1.58329 7.2367 1.50637C7.08582 1.43928 6.91357 1.43928 6.76269 1.50637C6.58971 1.58329 6.45713 1.81229 6.19196 2.27031Z" stroke="#FECDCA" stroke-width="1.16667" stroke-linecap="round" stroke-linejoin="round"/>
</svg>
