<svg width="20" height="20" viewBox="0 0 20 20" fill="none" xmlns="http://www.w3.org/2000/svg">
<path d="M16.6654 8.75033V5.66699C16.6654 4.26686 16.6654 3.5668 16.3929 3.03202C16.1532 2.56161 15.7707 2.17916 15.3003 1.93948C14.7656 1.66699 14.0655 1.66699 12.6654 1.66699H7.33203C5.9319 1.66699 5.23183 1.66699 4.69706 1.93948C4.22665 2.17916 3.8442 2.56161 3.60451 3.03202C3.33203 3.5668 3.33203 4.26686 3.33203 5.66699V14.3337C3.33203 15.7338 3.33203 16.4339 3.60451 16.9686C3.8442 17.439 4.22665 17.8215 4.69706 18.0612C5.23183 18.3337 5.9319 18.3337 7.33203 18.3337H9.9987M11.6654 9.16699H6.66536M8.33203 12.5003H6.66536M13.332 5.83366H6.66536M14.9987 17.5003V12.5003M12.4987 15.0003H17.4987" stroke="#CECFD2" stroke-width="1.66667" stroke-linecap="round" stroke-linejoin="round"/>
</svg>
