<svg width="20" height="20" viewBox="0 0 20 20" fill="none" xmlns="http://www.w3.org/2000/svg">
<path d="M11.6668 9.1665H6.66683M8.3335 12.4998H6.66683M13.3335 5.83317H6.66683M16.6668 8.74984V5.6665C16.6668 4.26637 16.6668 3.56631 16.3943 3.03153C16.1547 2.56112 15.7722 2.17867 15.3018 1.93899C14.767 1.6665 14.067 1.6665 12.6668 1.6665H7.3335C5.93336 1.6665 5.2333 1.6665 4.69852 1.93899C4.22811 2.17867 3.84566 2.56112 3.60598 3.03153C3.3335 3.56631 3.3335 4.26637 3.3335 5.6665V14.3332C3.3335 15.7333 3.3335 16.4334 3.60598 16.9681C3.84566 17.4386 4.22811 17.821 4.69852 18.0607C5.2333 18.3332 5.93336 18.3332 7.3335 18.3332H9.5835M18.3335 18.3332L17.0835 17.0832M17.9168 14.9998C17.9168 16.6107 16.611 17.9165 15.0002 17.9165C13.3893 17.9165 12.0835 16.6107 12.0835 14.9998C12.0835 13.389 13.3893 12.0832 15.0002 12.0832C16.611 12.0832 17.9168 13.389 17.9168 14.9998Z" stroke="#CECFD2" stroke-width="1.66667" stroke-linecap="round" stroke-linejoin="round"/>
</svg>
