<svg width="44" height="36" viewBox="0 0 44 36" fill="none" xmlns="http://www.w3.org/2000/svg">
<path d="M8 0.5H36C40.1421 0.5 43.5 3.85786 43.5 8V28C43.5 32.1421 40.1421 35.5 36 35.5H8C3.85786 35.5 0.5 32.1421 0.5 28V8C0.5 3.85786 3.85786 0.5 8 0.5Z" fill="#0C111D"/>
<path d="M8 0.5H36C40.1421 0.5 43.5 3.85786 43.5 8V28C43.5 32.1421 40.1421 35.5 36 35.5H8C3.85786 35.5 0.5 32.1421 0.5 28V8C0.5 3.85786 3.85786 0.5 8 0.5Z" stroke="#1F242F"/>
<path d="M22 9.875V11.9583M22 23V26.3333M16.7917 18H13.875M29.7083 18H28.4583M27.3809 23.3809L26.7917 22.7917M27.5535 12.5132L26.375 13.6917M16.1013 23.8987L18.4583 21.5417M16.2739 12.3406L18.0417 14.1083" stroke="#85888E" stroke-width="1.66667" stroke-linecap="round" stroke-linejoin="round"/>
</svg>
